<svg id="kity_svg_6" xmlns="http://www.w3.org/2000/svg" xmlns:xlink="http://www.w3.org/1999/xlink" version="1.1" width="1109" height="620" style="background: rgb(251, 251, 251); visibility: visible;" viewBox="0 0 1109 620"><defs id="kity_defs_7"><linearGradient id="kity_linearGradient_17" x1="0" y1="0" x2="0" y2="1"><stop id="kity_stop_18" offset="0" stop-color="rgb(255, 255, 255)"></stop><stop id="kity_stop_19" offset="1" stop-color="rgb(204, 204, 204)"></stop></linearGradient><marker id="kity_marker_2" orient="auto" refX="6" refY="0" viewBox="-7 -7 14 14" markerWidth="7" markerHeight="7" markerUnits="userSpaceOnUse"><path id="kity_path_3" fill="rgb(115, 161, 191)" stroke="none" d="M6,0A6,6,0,1,1,-6,0A6,6,0,1,1,6,0"></path></marker></defs><g id="kity_g_8"><g id="minder1" text-rendering="optimize-speed"><g id="minder_connect_group1"><path id="kity_path_31" fill="none" stroke="rgb(115, 161, 191)" stroke-width="1" d="M134.5,451A130,135.5,0,0,1,264.5,315.5"></path><path id="kity_path_33" fill="none" stroke="rgb(115, 161, 191)" stroke-width="1" d="M336.5,315.5C344.5,315.5,344.5,81.5,352.5,81.5"></path><path id="kity_path_35" fill="none" stroke="rgb(115, 161, 191)" stroke-width="1" d="M460.5,81.5C468.5,81.5,468.5,29.5,476.5,29.5"></path><path id="kity_path_37" fill="none" stroke="rgb(115, 161, 191)" stroke-width="1" d="M460.5,81.5C468.5,81.5,468.5,55.5,476.5,55.5"></path><path id="kity_path_39" fill="none" stroke="rgb(115, 161, 191)" stroke-width="1" d="M460.5,81.5C468.5,81.5,468.5,81.5,476.5,81.5"></path><path id="kity_path_41" fill="none" stroke="rgb(115, 161, 191)" stroke-width="1" d="M460.5,81.5C468.5,81.5,468.5,107.5,476.5,107.5"></path><path id="kity_path_43" fill="none" stroke="rgb(115, 161, 191)" stroke-width="1" d="M460.5,81.5C468.5,81.5,468.5,133.5,476.5,133.5"></path><path id="kity_path_45" fill="none" stroke="rgb(115, 161, 191)" stroke-width="1" d="M336.5,315.5C344.5,315.5,344.5,185.5,352.5,185.5"></path><path id="kity_path_47" fill="none" stroke="rgb(115, 161, 191)" stroke-width="1" d="M411.5,185.5C419.5,185.5,419.5,159.5,427.5,159.5"></path><path id="kity_path_49" fill="none" stroke="rgb(115, 161, 191)" stroke-width="1" d="M411.5,185.5C419.5,185.5,419.5,185.5,427.5,185.5"></path><path id="kity_path_51" fill="none" stroke="rgb(115, 161, 191)" stroke-width="1" d="M411.5,185.5C419.5,185.5,419.5,211.5,427.5,211.5"></path><path id="kity_path_53" fill="none" stroke="rgb(115, 161, 191)" stroke-width="1" d="M336.5,315.5C344.5,315.5,344.5,237.5,352.5,237.5"></path><path id="kity_path_55" fill="none" stroke="rgb(115, 161, 191)" stroke-width="1" d="M336.5,315.5C344.5,315.5,344.5,263.5,352.5,263.5"></path><path id="kity_path_57" fill="none" stroke="rgb(115, 161, 191)" stroke-width="1" d="M336.5,315.5C344.5,315.5,344.5,289.5,352.5,289.5"></path><path id="kity_path_59" fill="none" stroke="rgb(115, 161, 191)" stroke-width="1" d="M336.5,315.5C344.5,315.5,344.5,393.5,352.5,393.5"></path><path id="kity_path_61" fill="none" stroke="rgb(115, 161, 191)" stroke-width="1" d="M412.5,393.5C420.5,393.5,420.5,315.5,428.5,315.5"></path><path id="kity_path_63" fill="none" stroke="rgb(115, 161, 191)" stroke-width="1" d="M412.5,393.5C420.5,393.5,420.5,367.5,428.5,367.5"></path><path id="kity_path_65" fill="none" stroke="rgb(115, 161, 191)" stroke-width="1" d="M475.5,367.5C483.5,367.5,483.5,341.5,491.5,341.5"></path><path id="kity_path_67" fill="none" stroke="rgb(115, 161, 191)" stroke-width="1" d="M475.5,367.5C483.5,367.5,483.5,367.5,491.5,367.5"></path><path id="kity_path_69" fill="none" stroke="rgb(115, 161, 191)" stroke-width="1" d="M475.5,367.5C483.5,367.5,483.5,393.5,491.5,393.5"></path><path id="kity_path_71" fill="none" stroke="rgb(115, 161, 191)" stroke-width="1" d="M412.5,393.5C420.5,393.5,420.5,419.5,428.5,419.5"></path><path id="kity_path_73" fill="none" stroke="rgb(115, 161, 191)" stroke-width="1" d="M412.5,393.5C420.5,393.5,420.5,445.5,428.5,445.5"></path><path id="kity_path_75" fill="none" stroke="rgb(115, 161, 191)" stroke-width="1" d="M412.5,393.5C420.5,393.5,420.5,471.5,428.5,471.5"></path><path id="kity_path_77" fill="none" stroke="rgb(115, 161, 191)" stroke-width="1" d="M336.5,315.5C344.5,315.5,344.5,510.5,352.5,510.5"></path><path id="kity_path_79" fill="none" stroke="rgb(115, 161, 191)" stroke-width="1" d="M411.5,510.5C419.5,510.5,419.5,497.5,427.5,497.5"></path><path id="kity_path_81" fill="none" stroke="rgb(115, 161, 191)" stroke-width="1" d="M411.5,510.5C419.5,510.5,419.5,523.5,427.5,523.5"></path><path id="kity_path_83" fill="none" stroke="rgb(115, 161, 191)" stroke-width="1" d="M336.5,315.5C344.5,315.5,344.5,549.5,352.5,549.5"></path><path id="kity_path_85" fill="none" stroke="rgb(115, 161, 191)" stroke-width="1" d="M134.5,451A130,136.5,0,0,0,264.5,587.5"></path></g><g id="minder_node1"><path id="node_outline1" fill="rgb(115, 161, 191)" stroke="rgb(57, 80, 96)" d="M25.5,436.5h218a5,5,0,0,1,5,5v19a5,5,0,0,1,-5,5h-218a5,5,0,0,1,-5,-5v-19a5,5,0,0,1,5,-5z" stroke-width="3"></path><g id="node_text1" fill="white"><text id="kity_text_22" text-rendering="inherit" font-size="16" dy=".8em" y="440.09999990463257" x="32.5">马克思主义基本原理概论</text></g><g id="kity_g_142" style="cursor: pointer;"><path id="kity_path_143" fill="none" stroke="none" d="M223,442h12a2,2,0,0,1,2,2v13a2,2,0,0,1,-2,2h-12a2,2,0,0,1,-2,-2v-13a2,2,0,0,1,2,-2z"></path><path id="kity_path_144" fill="white" stroke="none" d="M232,453H226V452h6L232,453L232,453zM232,451H226V450h6V451zM232,449H226V448h6V449zM231.5,455H225V446h8v7.5M232,456l2,-2V445H224v11"></path></g></g><g id="kity_g_12"><path id="kity_path_13" fill="none" stroke="none" d="M32.5,450.5h0v0h0z"></path></g><g id="kity_g_14"><path id="kity_path_15" fill="none" stroke="none" d="M32.5,450.5h0v0h0z"></path><path id="kity_path_16" fill="none" stroke="none"></path></g><g id="minder_node2"><g id="node_expander27" style="cursor: pointer;"><path id="kity_path_252" fill="white" stroke="gray" d="M265.5,315.5A6,6,0,1,1,253.5,315.5A6,6,0,1,1,265.5,315.5"></path><path id="kity_path_253" fill="none" stroke="gray" d="M255,315.5L264,315.5"></path></g><path id="node_outline28" fill="rgb(238, 243, 246)" stroke="rgb(115, 161, 191)" d="M269.5,302.5h64a3,3,0,0,1,3,3v20a3,3,0,0,1,-3,3h-64a3,3,0,0,1,-3,-3v-20a3,3,0,0,1,3,-3z" stroke-width="1"></path><g id="node_text28" fill="black"><text id="kity_text_139" text-rendering="inherit" font-size="14" dy=".8em" y="306.40000009536743" x="286.5">导论</text></g></g><g id="minder_node3"><g id="node_expander6" style="cursor: pointer;"><path id="kity_path_189" fill="white" stroke="gray" d="M352.5,81.5A6,6,0,1,1,340.5,81.5A6,6,0,1,1,352.5,81.5"></path><path id="kity_path_190" fill="none" stroke="gray" d="M342,81.5L351,81.5"></path></g><path id="node_outline7" fill="none" stroke="none" d="M357.5,72.5h98a5,5,0,0,1,5,5v8a5,5,0,0,1,-5,5h-98a5,5,0,0,1,-5,-5v-8a5,5,0,0,1,5,-5z"></path><g id="node_text7" fill="black"><text id="kity_text_97" text-rendering="inherit" font-size="12" dy=".8em" y="73.70000004768372" x="357.5">什么是马克思主义</text></g></g><g id="minder_node4"><g id="node_expander1" display="none" style="cursor: pointer;"><path id="kity_path_174" fill="white" stroke="gray" d="M476.5,29.5A6,6,0,1,1,464.5,29.5A6,6,0,1,1,476.5,29.5"></path><path id="kity_path_175" fill="none" stroke="gray"></path></g><path id="node_outline2" fill="none" stroke="none" d="M481.5,20.5h300a5,5,0,0,1,5,5v8a5,5,0,0,1,-5,5h-300a5,5,0,0,1,-5,-5v-8a5,5,0,0,1,5,-5z"></path><g id="node_text2" fill="black"><text id="kity_text_87" text-rendering="inherit" font-size="12" dy=".8em" y="21.700000047683716" x="481.5">由马克思、恩格斯创立并为后继者所发展的科学理论体系</text></g></g><g id="minder_node5"><g id="node_expander2" display="none" style="cursor: pointer;"><path id="kity_path_177" fill="white" stroke="gray" d="M476.5,55.5A6,6,0,1,1,464.5,55.5A6,6,0,1,1,476.5,55.5"></path><path id="kity_path_178" fill="none" stroke="gray"></path></g><path id="node_outline3" fill="none" stroke="none" d="M481.5,46.5h266a5,5,0,0,1,5,5v8a5,5,0,0,1,-5,5h-266a5,5,0,0,1,-5,-5v-8a5,5,0,0,1,5,-5z"></path><g id="node_text3" fill="black"><text id="kity_text_89" text-rendering="inherit" font-size="12" dy=".8em" y="47.700000047683716" x="481.5">关于自然、社会和人类思维发展的一般规律的学说</text></g></g><g id="minder_node6"><g id="node_expander3" display="none" style="cursor: pointer;"><path id="kity_path_180" fill="white" stroke="gray" d="M476.5,81.5A6,6,0,1,1,464.5,81.5A6,6,0,1,1,476.5,81.5"></path><path id="kity_path_181" fill="none" stroke="gray"></path></g><path id="node_outline4" fill="none" stroke="none" d="M481.5,72.5h314a5,5,0,0,1,5,5v8a5,5,0,0,1,-5,5h-314a5,5,0,0,1,-5,-5v-8a5,5,0,0,1,5,-5z"></path><g id="node_text4" fill="black"><text id="kity_text_91" text-rendering="inherit" font-size="12" dy=".8em" y="73.70000004768372" x="481.5">关于社会主义必然取代资本主义、最终实现共产主义的学说</text></g></g><g id="minder_node7"><g id="node_expander4" display="none" style="cursor: pointer;"><path id="kity_path_183" fill="white" stroke="gray" d="M476.5,107.5A6,6,0,1,1,464.5,107.5A6,6,0,1,1,476.5,107.5"></path><path id="kity_path_184" fill="none" stroke="gray"></path></g><path id="node_outline5" fill="none" stroke="none" d="M481.5,98.5h338a5,5,0,0,1,5,5v8a5,5,0,0,1,-5,5h-338a5,5,0,0,1,-5,-5v-8a5,5,0,0,1,5,-5z"></path><g id="node_text5" fill="black"><text id="kity_text_93" text-rendering="inherit" font-size="12" dy=".8em" y="99.70000004768372" x="481.5">关于无产阶级解放、全人类解放和每个人自由而全面发展的学说</text></g></g><g id="minder_node8"><g id="node_expander5" display="none" style="cursor: pointer;"><path id="kity_path_186" fill="white" stroke="gray" d="M476.5,133.5A6,6,0,1,1,464.5,133.5A6,6,0,1,1,476.5,133.5"></path><path id="kity_path_187" fill="none" stroke="gray"></path></g><path id="node_outline6" fill="none" stroke="none" d="M481.5,124.5h205a5,5,0,0,1,5,5v8a5,5,0,0,1,-5,5h-205a5,5,0,0,1,-5,-5v-8a5,5,0,0,1,5,-5z"></path><g id="node_text6" fill="black"><text id="kity_text_95" text-rendering="inherit" font-size="12" dy=".8em" y="125.70000004768372" x="481.5">指引人民创造美好幸福生活的行动指南</text></g></g><g id="minder_node9"><g id="node_expander10" style="cursor: pointer;"><path id="kity_path_201" fill="white" stroke="gray" d="M352.5,185.5A6,6,0,1,1,340.5,185.5A6,6,0,1,1,352.5,185.5"></path><path id="kity_path_202" fill="none" stroke="gray" d="M342,185.5L351,185.5"></path></g><path id="node_outline11" fill="none" stroke="none" d="M357.5,176.5h49a5,5,0,0,1,5,5v8a5,5,0,0,1,-5,5h-49a5,5,0,0,1,-5,-5v-8a5,5,0,0,1,5,-5z"></path><g id="node_text11" fill="black"><text id="kity_text_105" text-rendering="inherit" font-size="12" dy=".8em" y="177.70000004768372" x="357.5">组成部分</text></g></g><g id="minder_node10"><g id="node_expander7" display="none" style="cursor: pointer;"><path id="kity_path_192" fill="white" stroke="gray" d="M427.5,159.5A6,6,0,1,1,415.5,159.5A6,6,0,1,1,427.5,159.5"></path><path id="kity_path_193" fill="none" stroke="gray"></path></g><path id="node_outline8" fill="none" stroke="none" d="M432.5,150.5h85a5,5,0,0,1,5,5v8a5,5,0,0,1,-5,5h-85a5,5,0,0,1,-5,-5v-8a5,5,0,0,1,5,-5z"></path><g id="node_text8" fill="black"><text id="kity_text_99" text-rendering="inherit" font-size="12" dy=".8em" y="151.70000004768372" x="432.5">马克思主义哲学</text></g></g><g id="minder_node11"><g id="node_expander8" display="none" style="cursor: pointer;"><path id="kity_path_195" fill="white" stroke="gray" d="M427.5,185.5A6,6,0,1,1,415.5,185.5A6,6,0,1,1,427.5,185.5"></path><path id="kity_path_196" fill="none" stroke="gray"></path></g><path id="node_outline9" fill="none" stroke="none" d="M432.5,176.5h121a5,5,0,0,1,5,5v8a5,5,0,0,1,-5,5h-121a5,5,0,0,1,-5,-5v-8a5,5,0,0,1,5,-5z"></path><g id="node_text9" fill="black"><text id="kity_text_101" text-rendering="inherit" font-size="12" dy=".8em" y="177.70000004768372" x="432.5">马克思主义政治经济学</text></g></g><g id="minder_node12"><g id="node_expander9" display="none" style="cursor: pointer;"><path id="kity_path_198" fill="white" stroke="gray" d="M427.5,211.5A6,6,0,1,1,415.5,211.5A6,6,0,1,1,427.5,211.5"></path><path id="kity_path_199" fill="none" stroke="gray"></path></g><path id="node_outline10" fill="none" stroke="none" d="M432.5,202.5h74a5,5,0,0,1,5,5v8a5,5,0,0,1,-5,5h-74a5,5,0,0,1,-5,-5v-8a5,5,0,0,1,5,-5z"></path><g id="node_text10" fill="black"><text id="kity_text_103" text-rendering="inherit" font-size="12" dy=".8em" y="203.70000004768372" x="432.5">科学社会主义</text></g></g><g id="minder_node13"><g id="node_expander11" display="none" style="cursor: pointer;"><path id="kity_path_204" fill="white" stroke="gray" d="M352.5,237.5A6,6,0,1,1,340.5,237.5A6,6,0,1,1,352.5,237.5"></path><path id="kity_path_205" fill="none" stroke="gray"></path></g><path id="node_outline12" fill="none" stroke="none" d="M357.5,228.5h230a5,5,0,0,1,5,5v8a5,5,0,0,1,-5,5h-230a5,5,0,0,1,-5,-5v-8a5,5,0,0,1,5,-5z"></path><g id="node_text12" fill="black"><text id="kity_text_107" text-rendering="inherit" font-size="12" dy=".8em" y="229.70000004768372" x="357.5">基本立场：无产阶级的解放和全人类的解放</text></g></g><g id="minder_node14"><g id="node_expander12" display="none" style="cursor: pointer;"><path id="kity_path_207" fill="white" stroke="gray" d="M352.5,263.5A6,6,0,1,1,340.5,263.5A6,6,0,1,1,352.5,263.5"></path><path id="kity_path_208" fill="none" stroke="gray"></path></g><path id="node_outline13" fill="none" stroke="none" d="M357.5,254.5h49a5,5,0,0,1,5,5v8a5,5,0,0,1,-5,5h-49a5,5,0,0,1,-5,-5v-8a5,5,0,0,1,5,-5z"></path><g id="node_text13" fill="black"><text id="kity_text_109" text-rendering="inherit" font-size="12" dy=".8em" y="255.70000004768372" x="357.5">基本观点</text></g></g><g id="minder_node15"><g id="node_expander13" display="none" style="cursor: pointer;"><path id="kity_path_210" fill="white" stroke="gray" d="M352.5,289.5A6,6,0,1,1,340.5,289.5A6,6,0,1,1,352.5,289.5"></path><path id="kity_path_211" fill="none" stroke="gray"></path></g><path id="node_outline14" fill="none" stroke="none" d="M357.5,280.5h361a5,5,0,0,1,5,5v8a5,5,0,0,1,-5,5h-361a5,5,0,0,1,-5,-5v-8a5,5,0,0,1,5,-5z"></path><g id="node_text14" fill="black"><text id="kity_text_111" text-rendering="inherit" font-size="12" dy=".8em" y="281.7000000476837" x="357.5">基本方法：建立在唯物辩证主义和历史唯物主义的世界观和方法论上</text></g></g><g id="minder_node16"><g id="node_expander22" style="cursor: pointer;"><path id="kity_path_237" fill="white" stroke="gray" d="M352.5,393.5A6,6,0,1,1,340.5,393.5A6,6,0,1,1,352.5,393.5"></path><path id="kity_path_238" fill="none" stroke="gray" d="M342,393.5L351,393.5"></path></g><path id="node_outline23" fill="none" stroke="none" d="M357.5,384.5h50a5,5,0,0,1,5,5v8a5,5,0,0,1,-5,5h-50a5,5,0,0,1,-5,-5v-8a5,5,0,0,1,5,-5z"></path><g id="node_text23" fill="black"><text id="kity_text_129" text-rendering="inherit" font-size="12" dy=".8em" y="385.7000000476837" x="357.5">鲜明特征</text></g></g><g id="minder_node17"><g id="node_expander14" display="none" style="cursor: pointer;"><path id="kity_path_213" fill="white" stroke="gray" d="M428.5,315.5A6,6,0,1,1,416.5,315.5A6,6,0,1,1,428.5,315.5"></path><path id="kity_path_214" fill="none" stroke="gray"></path></g><path id="node_outline15" fill="none" stroke="none" d="M433.5,306.5h38a5,5,0,0,1,5,5v8a5,5,0,0,1,-5,5h-38a5,5,0,0,1,-5,-5v-8a5,5,0,0,1,5,-5z"></path><g id="node_text15" fill="black"><text id="kity_text_113" text-rendering="inherit" font-size="12" dy=".8em" y="307.7000000476837" x="433.5">科学性</text></g></g><g id="minder_node18"><g id="node_expander18" style="cursor: pointer;"><path id="kity_path_225" fill="white" stroke="gray" d="M428.5,367.5A6,6,0,1,1,416.5,367.5A6,6,0,1,1,428.5,367.5"></path><path id="kity_path_226" fill="none" stroke="gray" d="M418,367.5L427,367.5"></path></g><path id="node_outline19" fill="none" stroke="none" d="M433.5,358.5h37a5,5,0,0,1,5,5v8a5,5,0,0,1,-5,5h-37a5,5,0,0,1,-5,-5v-8a5,5,0,0,1,5,-5z"></path><g id="node_text19" fill="black"><text id="kity_text_121" text-rendering="inherit" font-size="12" dy=".8em" y="359.7000000476837" x="433.5">革命性</text></g></g><g id="minder_node19"><g id="node_expander15" display="none" style="cursor: pointer;"><path id="kity_path_216" fill="white" stroke="gray" d="M491.5,341.5A6,6,0,1,1,479.5,341.5A6,6,0,1,1,491.5,341.5"></path><path id="kity_path_217" fill="none" stroke="gray"></path></g><path id="node_outline16" fill="none" stroke="none" d="M496.5,332.5h325a5,5,0,0,1,5,5v8a5,5,0,0,1,-5,5h-325a5,5,0,0,1,-5,-5v-8a5,5,0,0,1,5,-5z"></path><g id="node_text16" fill="black"><text id="kity_text_115" text-rendering="inherit" font-size="12" dy=".8em" y="333.7000000476837" x="496.5">“辩证法不崇拜任何东西。”甚至对本身也抱持着革命的态度</text></g></g><g id="minder_node20"><g id="node_expander16" display="none" style="cursor: pointer;"><path id="kity_path_219" fill="white" stroke="gray" d="M491.5,367.5A6,6,0,1,1,479.5,367.5A6,6,0,1,1,491.5,367.5"></path><path id="kity_path_220" fill="none" stroke="gray"></path></g><path id="node_outline17" fill="none" stroke="none" d="M496.5,358.5h588a5,5,0,0,1,5,5v8a5,5,0,0,1,-5,5h-588a5,5,0,0,1,-5,-5v-8a5,5,0,0,1,5,-5z"></path><g id="node_text17" fill="black"><text id="kity_text_117" text-rendering="inherit" font-size="12" dy=".8em" y="359.7000000476837" x="496.5">“辩证法在对现存事物的肯定的理解中同时包含着对现存事物的否定的理解，即对现存事物必然灭亡的理解。”</text></g></g><g id="minder_node21"><g id="node_expander17" display="none" style="cursor: pointer;"><path id="kity_path_222" fill="white" stroke="gray" d="M491.5,393.5A6,6,0,1,1,479.5,393.5A6,6,0,1,1,491.5,393.5"></path><path id="kity_path_223" fill="none" stroke="gray"></path></g><path id="node_outline18" fill="none" stroke="none" d="M496.5,384.5h480a5,5,0,0,1,5,5v8a5,5,0,0,1,-5,5h-480a5,5,0,0,1,-5,-5v-8a5,5,0,0,1,5,-5z"></path><g id="node_text18" fill="black"><text id="kity_text_119" text-rendering="inherit" font-size="12" dy=".8em" y="385.7000000476837" x="496.5">“辩证法对每一种既成的形式都是从不断的运动中，因而也是从它的暂时性方面去理解。”</text></g></g><g id="minder_node22"><g id="node_expander19" display="none" style="cursor: pointer;"><path id="kity_path_228" fill="white" stroke="gray" d="M428.5,419.5A6,6,0,1,1,416.5,419.5A6,6,0,1,1,428.5,419.5"></path><path id="kity_path_229" fill="none" stroke="gray"></path></g><path id="node_outline20" fill="none" stroke="none" d="M433.5,410.5h38a5,5,0,0,1,5,5v8a5,5,0,0,1,-5,5h-38a5,5,0,0,1,-5,-5v-8a5,5,0,0,1,5,-5z"></path><g id="node_text20" fill="black"><text id="kity_text_123" text-rendering="inherit" font-size="12" dy=".8em" y="411.7000000476837" x="433.5">实践性</text></g></g><g id="minder_node23"><g id="node_expander20" display="none" style="cursor: pointer;"><path id="kity_path_231" fill="white" stroke="gray" d="M428.5,445.5A6,6,0,1,1,416.5,445.5A6,6,0,1,1,428.5,445.5"></path><path id="kity_path_232" fill="none" stroke="gray"></path></g><path id="node_outline21" fill="none" stroke="none" d="M433.5,436.5h38a5,5,0,0,1,5,5v8a5,5,0,0,1,-5,5h-38a5,5,0,0,1,-5,-5v-8a5,5,0,0,1,5,-5z"></path><g id="node_text21" fill="black"><text id="kity_text_125" text-rendering="inherit" font-size="12" dy=".8em" y="437.7000000476837" x="433.5">人民性</text></g></g><g id="minder_node24"><g id="node_expander21" display="none" style="cursor: pointer;"><path id="kity_path_234" fill="white" stroke="gray" d="M428.5,471.5A6,6,0,1,1,416.5,471.5A6,6,0,1,1,428.5,471.5"></path><path id="kity_path_235" fill="none" stroke="gray"></path></g><path id="node_outline22" fill="none" stroke="none" d="M433.5,462.5h38a5,5,0,0,1,5,5v8a5,5,0,0,1,-5,5h-38a5,5,0,0,1,-5,-5v-8a5,5,0,0,1,5,-5z"></path><g id="node_text22" fill="black"><text id="kity_text_127" text-rendering="inherit" font-size="12" dy=".8em" y="463.7000000476837" x="433.5">发展性</text></g></g><g id="minder_node25"><g id="node_expander25" style="cursor: pointer;"><path id="kity_path_246" fill="white" stroke="gray" d="M352.5,510.5A6,6,0,1,1,340.5,510.5A6,6,0,1,1,352.5,510.5"></path><path id="kity_path_247" fill="none" stroke="gray" d="M342,510.5L351,510.5"></path></g><path id="node_outline26" fill="none" stroke="none" d="M357.5,501.5h49a5,5,0,0,1,5,5v8a5,5,0,0,1,-5,5h-49a5,5,0,0,1,-5,-5v-8a5,5,0,0,1,5,-5z"></path><g id="node_text26" fill="black"><text id="kity_text_135" text-rendering="inherit" font-size="12" dy=".8em" y="502.7000000476837" x="357.5">当代价值</text></g></g><g id="minder_node26"><g id="node_expander23" display="none" style="cursor: pointer;"><path id="kity_path_240" fill="white" stroke="gray" d="M427.5,497.5A6,6,0,1,1,415.5,497.5A6,6,0,1,1,427.5,497.5"></path><path id="kity_path_241" fill="none" stroke="gray"></path></g><path id="node_outline24" fill="none" stroke="none" d="M432.5,488.5h134a5,5,0,0,1,5,5v8a5,5,0,0,1,-5,5h-134a5,5,0,0,1,-5,-5v-8a5,5,0,0,1,5,-5z"></path><g id="node_text24" fill="black"><text id="kity_text_131" text-rendering="inherit" font-size="12" dy=".8em" y="489.7000000476837" x="432.5">观察世界变化的认识工具</text></g></g><g id="minder_node27"><g id="node_expander24" display="none" style="cursor: pointer;"><path id="kity_path_243" fill="white" stroke="gray" d="M427.5,523.5A6,6,0,1,1,415.5,523.5A6,6,0,1,1,427.5,523.5"></path><path id="kity_path_244" fill="none" stroke="gray"></path></g><path id="node_outline25" fill="none" stroke="none" d="M432.5,514.5h133a5,5,0,0,1,5,5v8a5,5,0,0,1,-5,5h-133a5,5,0,0,1,-5,-5v-8a5,5,0,0,1,5,-5z"></path><g id="node_text25" fill="black"><text id="kity_text_133" text-rendering="inherit" font-size="12" dy=".8em" y="515.7000000476837" x="432.5">指引发展进步的行动指南</text></g></g><g id="minder_node28"><g id="node_expander26" display="none" style="cursor: pointer;"><path id="kity_path_249" fill="white" stroke="gray" d="M352.5,549.5A6,6,0,1,1,340.5,549.5A6,6,0,1,1,352.5,549.5"></path><path id="kity_path_250" fill="none" stroke="gray"></path></g><path id="node_outline27" fill="none" stroke="none" d="M357.5,540.5h252a5,5,0,0,1,5,5v8a5,5,0,0,1,-5,5h-252a5,5,0,0,1,-5,-5v-8a5,5,0,0,1,5,-5z"></path><g id="node_text27" fill="black"><text id="kity_text_137" text-rendering="inherit" font-size="12" dy=".8em" y="541.7000000476837" x="357.5">学习方法：理论联系实践，内化于心，外化于行</text></g></g><g id="minder_node29"><g id="node_expander28" display="none" style="cursor: pointer;"><path id="kity_path_255" fill="white" stroke="gray" d="M265.5,587.5A6,6,0,1,1,253.5,587.5A6,6,0,1,1,265.5,587.5"></path><path id="kity_path_256" fill="none" stroke="gray"></path></g><path id="node_outline29" fill="rgb(238, 243, 246)" stroke="rgb(115, 161, 191)" d="M269.5,574.5h189a3,3,0,0,1,3,3v20a3,3,0,0,1,-3,3h-189a3,3,0,0,1,-3,-3v-20a3,3,0,0,1,3,-3z" stroke-width="1"></path><g id="node_text29" fill="black"><text id="kity_text_141" text-rendering="inherit" font-size="14" dy=".8em" y="578.4000000953674" x="286.5">世界的物质性及发展规律</text></g></g></g></g></svg>